<svg id="my-svg" width="100%" xmlns="http://www.w3.org/2000/svg" xmlns:xlink="http://www.w3.org/1999/xlink" class="flowchart" style="max-width: 4199.14px; background-color: white;" viewBox="0 0 4199.140625 367.35546875" role="graphics-document document" aria-roledescription="flowchart-v2"><style>#my-svg{font-family:"trebuchet ms",verdana,arial,sans-serif;font-size:16px;fill:#333;}@keyframes edge-animation-frame{from{stroke-dashoffset:0;}}@keyframes dash{to{stroke-dashoffset:0;}}#my-svg .edge-animation-slow{stroke-dasharray:9,5!important;stroke-dashoffset:900;animation:dash 50s linear infinite;stroke-linecap:round;}#my-svg .edge-animation-fast{stroke-dasharray:9,5!important;stroke-dashoffset:900;animation:dash 20s linear infinite;stroke-linecap:round;}#my-svg .error-icon{fill:#552222;}#my-svg .error-text{fill:#552222;stroke:#552222;}#my-svg .edge-thickness-normal{stroke-width:1px;}#my-svg .edge-thickness-thick{stroke-width:3.5px;}#my-svg .edge-pattern-solid{stroke-dasharray:0;}#my-svg .edge-thickness-invisible{stroke-width:0;fill:none;}#my-svg .edge-pattern-dashed{stroke-dasharray:3;}#my-svg .edge-pattern-dotted{stroke-dasharray:2;}#my-svg .marker{fill:#333333;stroke:#333333;}#my-svg .marker.cross{stroke:#333333;}#my-svg svg{font-family:"trebuchet ms",verdana,arial,sans-serif;font-size:16px;}#my-svg p{margin:0;}#my-svg .label{font-family:"trebuchet ms",verdana,arial,sans-serif;color:#333;}#my-svg .cluster-label text{fill:#333;}#my-svg .cluster-label span{color:#333;}#my-svg .cluster-label span p{background-color:transparent;}#my-svg .label text,#my-svg span{fill:#333;color:#333;}#my-svg .node rect,#my-svg .node circle,#my-svg .node ellipse,#my-svg .node polygon,#my-svg .node path{fill:#ECECFF;stroke:#9370DB;stroke-width:1px;}#my-svg .rough-node .label text,#my-svg .node .label text,#my-svg .image-shape .label,#my-svg .icon-shape .label{text-anchor:middle;}#my-svg .node .katex path{fill:#000;stroke:#000;stroke-width:1px;}#my-svg .rough-node .label,#my-svg .node .label,#my-svg .image-shape .label,#my-svg .icon-shape .label{text-align:center;}#my-svg .node.clickable{cursor:pointer;}#my-svg .root .anchor path{fill:#333333!important;stroke-width:0;stroke:#333333;}#my-svg .arrowheadPath{fill:#333333;}#my-svg .edgePath .path{stroke:#333333;stroke-width:2.0px;}#my-svg .flowchart-link{stroke:#333333;fill:none;}#my-svg .edgeLabel{background-color:rgba(232,232,232, 0.8);text-align:center;}#my-svg .edgeLabel p{background-color:rgba(232,232,232, 0.8);}#my-svg .edgeLabel rect{opacity:0.5;background-color:rgba(232,232,232, 0.8);fill:rgba(232,232,232, 0.8);}#my-svg .labelBkg{background-color:rgba(232, 232, 232, 0.5);}#my-svg .cluster rect{fill:#ffffde;stroke:#aaaa33;stroke-width:1px;}#my-svg .cluster text{fill:#333;}#my-svg .cluster span{color:#333;}#my-svg div.mermaidTooltip{position:absolute;text-align:center;max-width:200px;padding:2px;font-family:"trebuchet ms",verdana,arial,sans-serif;font-size:12px;background:hsl(80, 100%, 96.2745098039%);border:1px solid #aaaa33;border-radius:2px;pointer-events:none;z-index:100;}#my-svg .flowchartTitleText{text-anchor:middle;font-size:18px;fill:#333;}#my-svg rect.text{fill:none;stroke-width:0;}#my-svg .icon-shape,#my-svg .image-shape{background-color:rgba(232,232,232, 0.8);text-align:center;}#my-svg .icon-shape p,#my-svg .image-shape p{background-color:rgba(232,232,232, 0.8);padding:2px;}#my-svg .icon-shape rect,#my-svg .image-shape rect{opacity:0.5;background-color:rgba(232,232,232, 0.8);fill:rgba(232,232,232, 0.8);}#my-svg .label-icon{display:inline-block;height:1em;overflow:visible;vertical-align:-0.125em;}#my-svg .node .label-icon path{fill:currentColor;stroke:revert;stroke-width:revert;}#my-svg :root{--mermaid-font-family:"trebuchet ms",verdana,arial,sans-serif;}</style><g><marker id="my-svg_flowchart-v2-pointEnd" class="marker flowchart-v2" viewBox="0 0 10 10" refX="5" refY="5" markerUnits="userSpaceOnUse" markerWidth="8" markerHeight="8" orient="auto"><path d="M 0 0 L 10 5 L 0 10 z" class="arrowMarkerPath" style="stroke-width: 1; stroke-dasharray: 1, 0;"/></marker><marker id="my-svg_flowchart-v2-pointStart" class="marker flowchart-v2" viewBox="0 0 10 10" refX="4.5" refY="5" markerUnits="userSpaceOnUse" markerWidth="8" markerHeight="8" orient="auto"><path d="M 0 5 L 10 10 L 10 0 z" class="arrowMarkerPath" style="stroke-width: 1; stroke-dasharray: 1, 0;"/></marker><marker id="my-svg_flowchart-v2-circleEnd" class="marker flowchart-v2" viewBox="0 0 10 10" refX="11" refY="5" markerUnits="userSpaceOnUse" markerWidth="11" markerHeight="11" orient="auto"><circle cx="5" cy="5" r="5" class="arrowMarkerPath" style="stroke-width: 1; stroke-dasharray: 1, 0;"/></marker><marker id="my-svg_flowchart-v2-circleStart" class="marker flowchart-v2" viewBox="0 0 10 10" refX="-1" refY="5" markerUnits="userSpaceOnUse" markerWidth="11" markerHeight="11" orient="auto"><circle cx="5" cy="5" r="5" class="arrowMarkerPath" style="stroke-width: 1; stroke-dasharray: 1, 0;"/></marker><marker id="my-svg_flowchart-v2-crossEnd" class="marker cross flowchart-v2" viewBox="0 0 11 11" refX="12" refY="5.2" markerUnits="userSpaceOnUse" markerWidth="11" markerHeight="11" orient="auto"><path d="M 1,1 l 9,9 M 10,1 l -9,9" class="arrowMarkerPath" style="stroke-width: 2; stroke-dasharray: 1, 0;"/></marker><marker id="my-svg_flowchart-v2-crossStart" class="marker cross flowchart-v2" viewBox="0 0 11 11" refX="-1" refY="5.2" markerUnits="userSpaceOnUse" markerWidth="11" markerHeight="11" orient="auto"><path d="M 1,1 l 9,9 M 10,1 l -9,9" class="arrowMarkerPath" style="stroke-width: 2; stroke-dasharray: 1, 0;"/></marker><g class="root"><g class="clusters"><g class="cluster" id="subGraph2" data-look="classic"><rect style="" x="2448.84375" y="8" width="1742.296875" height="302.7890625"/><g class="cluster-label" transform="translate(3292.4296875, 8)"><text x="27.5625" y="17.0" text-anchor="middle" dominant-baseline="middle" style="font-family: trebuchet ms, verdana, arial, sans-serif; font-size: 14px; fill: #333;">DR Site</text></g></g><g class="cluster" id="subGraph1" data-look="classic"><rect style="" x="1738.34375" y="9" width="660.5" height="254.89453125"/><g class="cluster-label" transform="translate(2011.6796875, 9)"><text x="56.9140625" y="17.0" text-anchor="middle" dominant-baseline="middle" style="font-family: trebuchet ms, verdana, arial, sans-serif; font-size: 14px; fill: #333;">Secure Transfer</text></g></g><g class="cluster" id="subGraph0" data-look="classic"><rect style="" x="8" y="30.64453125" width="1680.34375" height="328.7109375"/><g class="cluster-label" transform="translate(768.140625, 30.64453125)"><text x="80.03125" y="17.0" text-anchor="middle" dominant-baseline="middle" style="font-family: trebuchet ms, verdana, arial, sans-serif; font-size: 14px; fill: #333;">DC Site - Every 1 hour</text></g></g></g><g class="edgePaths"><path d="M220.188,198L224.354,198C228.521,198,236.854,198,244.521,198C252.188,198,259.188,198,262.688,198L266.188,198" id="L_A_B_0" class="edge-thickness-normal edge-pattern-solid edge-thickness-normal edge-pattern-solid flowchart-link" style=";" data-edge="true" data-et="edge" data-id="L_A_B_0" data-points="W3sieCI6MjIwLjE4NzUsInkiOjE5OH0seyJ4IjoyNDUuMTg3NSwieSI6MTk4fSx7IngiOjI3MC4xODc1LCJ5IjoxOTh9XQ==" marker-end="url(#my-svg_flowchart-v2-pointEnd)"/><path d="M428.891,198L433.057,198C437.224,198,445.557,198,453.224,198C460.891,198,467.891,198,471.391,198L474.891,198" id="L_B_C_0" class="edge-thickness-normal edge-pattern-solid edge-thickness-normal edge-pattern-solid flowchart-link" style=";" data-edge="true" data-et="edge" data-id="L_B_C_0" data-points="W3sieCI6NDI4Ljg5MDYyNSwieSI6MTk4fSx7IngiOjQ1My44OTA2MjUsInkiOjE5OH0seyJ4Ijo0NzguODkwNjI1LCJ5IjoxOTh9XQ==" marker-end="url(#my-svg_flowchart-v2-pointEnd)"/><path d="M666.984,198L671.151,198C675.318,198,683.651,198,691.318,198C698.984,198,705.984,198,709.484,198L712.984,198" id="L_C_D_0" class="edge-thickness-normal edge-pattern-solid edge-thickness-normal edge-pattern-solid flowchart-link" style=";" data-edge="true" data-et="edge" data-id="L_C_D_0" data-points="W3sieCI6NjY2Ljk4NDM3NSwieSI6MTk4fSx7IngiOjY5MS45ODQzNzUsInkiOjE5OH0seyJ4Ijo3MTYuOTg0Mzc1LCJ5IjoxOTh9XQ==" marker-end="url(#my-svg_flowchart-v2-pointEnd)"/><path d="M905.482,167.075L916.978,162.563C928.475,158.05,951.468,149.025,968.64,144.513C985.813,140,997.164,140,1002.84,140L1008.516,140" id="L_D_E_0" class="edge-thickness-normal edge-pattern-solid edge-thickness-normal edge-pattern-solid flowchart-link" style=";" data-edge="true" data-et="edge" data-id="L_D_E_0" data-points="W3sieCI6OTA1LjQ4MTU3ODQyMjgxMTEsInkiOjE2Ny4wNzUzMjg0MjI4MTExNH0seyJ4Ijo5NzQuNDYwOTM3NSwieSI6MTQwfSx7IngiOjEwMTIuNTE1NjI1LCJ5IjoxNDB9XQ==" marker-end="url(#my-svg_flowchart-v2-pointEnd)"/><path d="M905.482,228.925L916.978,233.437C928.475,237.95,951.468,246.975,968.863,251.487C986.258,256,998.055,256,1003.953,256L1009.852,256" id="L_D_F_0" class="edge-thickness-normal edge-pattern-solid edge-thickness-normal edge-pattern-solid flowchart-link" style=";" data-edge="true" data-et="edge" data-id="L_D_F_0" data-points="W3sieCI6OTA1LjQ4MTU3ODQyMjgxMTEsInkiOjIyOC45MjQ2NzE1NzcxODg4Nn0seyJ4Ijo5NzQuNDYwOTM3NSwieSI6MjU2fSx7IngiOjEwMTMuODUxNTYyNSwieSI6MjU2fV0=" marker-end="url(#my-svg_flowchart-v2-pointEnd)"/><path d="M1208.578,140L1212.745,140C1216.911,140,1225.245,140,1232.911,140C1240.578,140,1247.578,140,1251.078,140L1254.578,140" id="L_E_G_0" class="edge-thickness-normal edge-pattern-solid edge-thickness-normal edge-pattern-solid flowchart-link" style=";" data-edge="true" data-et="edge" data-id="L_E_G_0" data-points="W3sieCI6MTIwOC41NzgxMjUsInkiOjE0MH0seyJ4IjoxMjMzLjU3ODEyNSwieSI6MTQwfSx7IngiOjEyNTguNTc4MTI1LCJ5IjoxNDB9XQ==" marker-end="url(#my-svg_flowchart-v2-pointEnd)"/><path d="M1448.406,140L1452.573,140C1456.74,140,1465.073,140,1472.74,140C1480.406,140,1487.406,140,1490.906,140L1494.406,140" id="L_G_H_0" class="edge-thickness-normal edge-pattern-solid edge-thickness-normal edge-pattern-solid flowchart-link" style=";" data-edge="true" data-et="edge" data-id="L_G_H_0" data-points="W3sieCI6MTQ0OC40MDYyNSwieSI6MTQwfSx7IngiOjE0NzMuNDA2MjUsInkiOjE0MH0seyJ4IjoxNDk4LjQwNjI1LCJ5IjoxNDB9XQ==" marker-end="url(#my-svg_flowchart-v2-pointEnd)"/><path d="M1663.344,140L1667.51,140C1671.677,140,1680.01,140,1688.344,140C1696.677,140,1705.01,140,1713.344,140C1721.677,140,1730.01,140,1737.677,140C1745.344,140,1752.344,140,1755.844,140L1759.344,140" id="L_H_I_0" class="edge-thickness-normal edge-pattern-solid edge-thickness-normal edge-pattern-solid flowchart-link" style=";" data-edge="true" data-et="edge" data-id="L_H_I_0" data-points="W3sieCI6MTY2My4zNDM3NSwieSI6MTQwfSx7IngiOjE2ODguMzQzNzUsInkiOjE0MH0seyJ4IjoxNzEzLjM0Mzc1LCJ5IjoxNDB9LHsieCI6MTczOC4zNDM3NSwieSI6MTQwfSx7IngiOjE3NjMuMzQzNzUsInkiOjE0MH1d" marker-end="url(#my-svg_flowchart-v2-pointEnd)"/><path d="M1912.999,179L1918.181,181.816C1923.364,184.632,1933.729,190.263,1942.411,193.079C1951.094,195.895,1958.094,195.895,1961.594,195.895L1965.094,195.895" id="L_I_J_0" class="edge-thickness-normal edge-pattern-solid edge-thickness-normal edge-pattern-solid flowchart-link" style=";" data-edge="true" data-et="edge" data-id="L_I_J_0" data-points="W3sieCI6MTkxMi45OTkwMjgxNDY2MjEsInkiOjE3OX0seyJ4IjoxOTQ0LjA5Mzc1LCJ5IjoxOTUuODk0NTMxMjV9LHsieCI6MTk2OS4wOTM3NSwieSI6MTk1Ljg5NDUzMTI1fV0=" marker-end="url(#my-svg_flowchart-v2-pointEnd)"/><path d="M2142.031,195.895L2146.198,195.895C2150.365,195.895,2158.698,195.895,2166.365,195.895C2174.031,195.895,2181.031,195.895,2184.531,195.895L2188.031,195.895" id="L_J_K_0" class="edge-thickness-normal edge-pattern-solid edge-thickness-normal edge-pattern-solid flowchart-link" style=";" data-edge="true" data-et="edge" data-id="L_J_K_0" data-points="W3sieCI6MjE0Mi4wMzEyNSwieSI6MTk1Ljg5NDUzMTI1fSx7IngiOjIxNjcuMDMxMjUsInkiOjE5NS44OTQ1MzEyNX0seyJ4IjoyMTkyLjAzMTI1LCJ5IjoxOTUuODk0NTMxMjV9XQ==" marker-end="url(#my-svg_flowchart-v2-pointEnd)"/><path d="M2373.844,195.895L2378.01,195.895C2382.177,195.895,2390.51,195.895,2398.844,195.895C2407.177,195.895,2415.51,195.895,2423.844,195.895C2432.177,195.895,2440.51,195.895,2448.177,195.895C2455.844,195.895,2462.844,195.895,2466.344,195.895L2469.844,195.895" id="L_K_L_0" class="edge-thickness-normal edge-pattern-solid edge-thickness-normal edge-pattern-solid flowchart-link" style=";" data-edge="true" data-et="edge" data-id="L_K_L_0" data-points="W3sieCI6MjM3My44NDM3NSwieSI6MTk1Ljg5NDUzMTI1fSx7IngiOjIzOTguODQzNzUsInkiOjE5NS44OTQ1MzEyNX0seyJ4IjoyNDIzLjg0Mzc1LCJ5IjoxOTUuODk0NTMxMjV9LHsieCI6MjQ0OC44NDM3NSwieSI6MTk1Ljg5NDUzMTI1fSx7IngiOjI0NzMuODQzNzUsInkiOjE5NS44OTQ1MzEyNX1d" marker-end="url(#my-svg_flowchart-v2-pointEnd)"/><path d="M2648.563,195.895L2652.729,195.895C2656.896,195.895,2665.229,195.895,2672.896,195.895C2680.563,195.895,2687.563,195.895,2691.063,195.895L2694.563,195.895" id="L_L_M_0" class="edge-thickness-normal edge-pattern-solid edge-thickness-normal edge-pattern-solid flowchart-link" style=";" data-edge="true" data-et="edge" data-id="L_L_M_0" data-points="W3sieCI6MjY0OC41NjI1LCJ5IjoxOTUuODk0NTMxMjV9LHsieCI6MjY3My41NjI1LCJ5IjoxOTUuODk0NTMxMjV9LHsieCI6MjY5OC41NjI1LCJ5IjoxOTUuODk0NTMxMjV9XQ==" marker-end="url(#my-svg_flowchart-v2-pointEnd)"/><path d="M2836.813,195.895L2840.979,195.895C2845.146,195.895,2853.479,195.895,2861.146,195.895C2868.813,195.895,2875.813,195.895,2879.313,195.895L2882.813,195.895" id="L_M_N_0" class="edge-thickness-normal edge-pattern-solid edge-thickness-normal edge-pattern-solid flowchart-link" style=";" data-edge="true" data-et="edge" data-id="L_M_N_0" data-points="W3sieCI6MjgzNi44MTI1LCJ5IjoxOTUuODk0NTMxMjV9LHsieCI6Mjg2MS44MTI1LCJ5IjoxOTUuODk0NTMxMjV9LHsieCI6Mjg4Ni44MTI1LCJ5IjoxOTUuODk0NTMxMjV9XQ==" marker-end="url(#my-svg_flowchart-v2-pointEnd)"/><path d="M3014.623,170.127L3025.26,164.755C3035.897,159.383,3057.171,148.639,3074.88,140.011C3092.588,131.383,3106.731,124.872,3113.803,121.616L3120.874,118.36" id="L_N_O_0" class="edge-thickness-normal edge-pattern-solid edge-thickness-normal edge-pattern-solid flowchart-link" style=";" data-edge="true" data-et="edge" data-id="L_N_O_0" data-points="W3sieCI6MzAxNC42MjMwNDIyODQzOTcsInkiOjE3MC4xMjY5NDg1MzQzOTcwM30seyJ4IjozMDc4LjQ0NTMxMjUsInkiOjEzNy44OTQ1MzEyNX0seyJ4IjozMTI0LjUwNzgxMjUsInkiOjExNi42ODc3MDAwODg0ODEzNH1d" marker-end="url(#my-svg_flowchart-v2-pointEnd)"/><path d="M3124.508,72.071L3116.831,71.059C3109.154,70.047,3093.799,68.024,3066.982,67.012C3040.164,66,3001.883,66,2965.777,66C2929.672,66,2895.742,66,2863.09,66C2830.438,66,2799.063,66,2767.688,66C2736.313,66,2704.938,66,2670.523,66C2636.109,66,2598.656,66,2561.203,66C2523.75,66,2486.297,66,2463.404,66C2440.51,66,2432.177,66,2423.844,66C2415.51,66,2407.177,66,2383.693,66C2360.208,66,2321.573,66,2282.938,66C2244.302,66,2205.667,66,2167.771,66C2129.875,66,2092.719,66,2055.563,66C2018.406,66,1981.25,66,1955.104,71.444C1928.957,76.888,1913.82,87.776,1906.252,93.22L1898.684,98.664" id="L_O_I_0" class="edge-thickness-normal edge-pattern-solid edge-thickness-normal edge-pattern-solid flowchart-link" style=";" data-edge="true" data-et="edge" data-id="L_O_I_0" data-points="W3sieCI6MzEyNC41MDc4MTI1LCJ5Ijo3Mi4wNzA1Mjc2NzA1Mjc2N30seyJ4IjozMDc4LjQ0NTMxMjUsInkiOjY2fSx7IngiOjI5NjMuNjAxNTYyNSwieSI6NjZ9LHsieCI6Mjg2MS44MTI1LCJ5Ijo2Nn0seyJ4IjoyNzY3LjY4NzUsInkiOjY2fSx7IngiOjI2NzMuNTYyNSwieSI6NjZ9LHsieCI6MjU2MS4yMDMxMjUsInkiOjY2fSx7IngiOjI0NDguODQzNzUsInkiOjY2fSx7IngiOjI0MjMuODQzNzUsInkiOjY2fSx7IngiOjIzOTguODQzNzUsInkiOjY2fSx7IngiOjIyODIuOTM3NSwieSI6NjZ9LHsieCI6MjE2Ny4wMzEyNSwieSI6NjZ9LHsieCI6MjA1NS41NjI1LCJ5Ijo2Nn0seyJ4IjoxOTQ0LjA5Mzc1LCJ5Ijo2Nn0seyJ4IjoxODk1LjQzNjY1NTQwNTQwNTQsInkiOjEwMX1d" marker-end="url(#my-svg_flowchart-v2-pointEnd)"/><path d="M3028.045,208.24L3036.445,209.849C3044.845,211.458,3061.645,214.676,3075.721,216.285C3089.797,217.895,3101.148,217.895,3106.824,217.895L3112.5,217.895" id="L_N_P_0" class="edge-thickness-normal edge-pattern-solid edge-thickness-normal edge-pattern-solid flowchart-link" style=";" data-edge="true" data-et="edge" data-id="L_N_P_0" data-points="W3sieCI6MzAyOC4wNDU0NTQ4Njk4MzM1LCJ5IjoyMDguMjM5NzAxMzgwMTY2N30seyJ4IjozMDc4LjQ0NTMxMjUsInkiOjIxNy44OTQ1MzEyNX0seyJ4IjozMTE2LjUsInkiOjIxNy44OTQ1MzEyNX1d" marker-end="url(#my-svg_flowchart-v2-pointEnd)"/><path d="M3283.203,217.895L3287.37,217.895C3291.536,217.895,3299.87,217.895,3307.536,217.895C3315.203,217.895,3322.203,217.895,3325.703,217.895L3329.203,217.895" id="L_P_Q_0" class="edge-thickness-normal edge-pattern-solid edge-thickness-normal edge-pattern-solid flowchart-link" style=";" data-edge="true" data-et="edge" data-id="L_P_Q_0" data-points="W3sieCI6MzI4My4yMDMxMjUsInkiOjIxNy44OTQ1MzEyNX0seyJ4IjozMzA4LjIwMzEyNSwieSI6MjE3Ljg5NDUzMTI1fSx7IngiOjMzMzMuMjAzMTI1LCJ5IjoyMTcuODk0NTMxMjV9XQ==" marker-end="url(#my-svg_flowchart-v2-pointEnd)"/><path d="M3519.516,217.895L3523.682,217.895C3527.849,217.895,3536.182,217.895,3543.849,217.895C3551.516,217.895,3558.516,217.895,3562.016,217.895L3565.516,217.895" id="L_Q_R_0" class="edge-thickness-normal edge-pattern-solid edge-thickness-normal edge-pattern-solid flowchart-link" style=";" data-edge="true" data-et="edge" data-id="L_Q_R_0" data-points="W3sieCI6MzUxOS41MTU2MjUsInkiOjIxNy44OTQ1MzEyNX0seyJ4IjozNTQ0LjUxNTYyNSwieSI6MjE3Ljg5NDUzMTI1fSx7IngiOjM1NjkuNTE1NjI1LCJ5IjoyMTcuODk0NTMxMjV9XQ==" marker-end="url(#my-svg_flowchart-v2-pointEnd)"/><path d="M3738.906,217.895L3743.073,217.895C3747.24,217.895,3755.573,217.895,3763.24,217.895C3770.906,217.895,3777.906,217.895,3781.406,217.895L3784.906,217.895" id="L_R_S_0" class="edge-thickness-normal edge-pattern-solid edge-thickness-normal edge-pattern-solid flowchart-link" style=";" data-edge="true" data-et="edge" data-id="L_R_S_0" data-points="W3sieCI6MzczOC45MDYyNSwieSI6MjE3Ljg5NDUzMTI1fSx7IngiOjM3NjMuOTA2MjUsInkiOjIxNy44OTQ1MzEyNX0seyJ4IjozNzg4LjkwNjI1LCJ5IjoyMTcuODk0NTMxMjV9XQ==" marker-end="url(#my-svg_flowchart-v2-pointEnd)"/><path d="M3929.844,217.895L3934.01,217.895C3938.177,217.895,3946.51,217.895,3954.177,217.895C3961.844,217.895,3968.844,217.895,3972.344,217.895L3975.844,217.895" id="L_S_T_0" class="edge-thickness-normal edge-pattern-solid edge-thickness-normal edge-pattern-solid flowchart-link" style=";" data-edge="true" data-et="edge" data-id="L_S_T_0" data-points="W3sieCI6MzkyOS44NDM3NSwieSI6MjE3Ljg5NDUzMTI1fSx7IngiOjM5NTQuODQzNzUsInkiOjIxNy44OTQ1MzEyNX0seyJ4IjozOTc5Ljg0Mzc1LCJ5IjoyMTcuODk0NTMxMjV9XQ==" marker-end="url(#my-svg_flowchart-v2-pointEnd)"/></g><g class="edgeLabels"><g class="edgeLabel"><g class="label" data-id="L_A_B_0" transform="translate(0, 0)"></g></g><g class="edgeLabel"><g class="label" data-id="L_B_C_0" transform="translate(0, 0)"></g></g><g class="edgeLabel"><g class="label" data-id="L_C_D_0" transform="translate(0, 0)"></g></g><g class="edgeLabel" transform="translate(974.4609375, 140)"><g class="label" transform="translate(-13.0546875, -12)"><text x="0" y="0" text-anchor="middle" dominant-baseline="middle" style="font-family: trebuchet ms, verdana, arial, sans-serif; font-size: 12px; fill: #333;">Yes</text></g></g><g class="edgeLabel" transform="translate(974.4609375, 256)"><g class="label" transform="translate(-10.2265625, -12)"><text x="0" y="0" text-anchor="middle" dominant-baseline="middle" style="font-family: trebuchet ms, verdana, arial, sans-serif; font-size: 12px; fill: #333;">No</text></g></g><g class="edgeLabel"><g class="label" data-id="L_E_G_0" transform="translate(0, 0)"></g></g><g class="edgeLabel"><g class="label" data-id="L_G_H_0" transform="translate(0, 0)"></g></g><g class="edgeLabel"><g class="label" data-id="L_H_I_0" transform="translate(0, 0)"></g></g><g class="edgeLabel"><g class="label" data-id="L_I_J_0" transform="translate(0, 0)"></g></g><g class="edgeLabel"><g class="label" data-id="L_J_K_0" transform="translate(0, 0)"></g></g><g class="edgeLabel"><g class="label" data-id="L_K_L_0" transform="translate(0, 0)"></g></g><g class="edgeLabel"><g class="label" data-id="L_L_M_0" transform="translate(0, 0)"></g></g><g class="edgeLabel"><g class="label" data-id="L_M_N_0" transform="translate(0, 0)"></g></g><g class="edgeLabel" transform="translate(3069.16653, 142.58063)"><g class="label" transform="translate(-10.2265625, -12)"><text x="0" y="0" text-anchor="middle" dominant-baseline="middle" style="font-family: trebuchet ms, verdana, arial, sans-serif; font-size: 12px; fill: #333;">No</text></g></g><g class="edgeLabel"><g class="label" data-id="L_O_I_0" transform="translate(0, 0)"></g></g><g class="edgeLabel" transform="translate(3078.4453125, 217.89453125)"><g class="label" transform="translate(-13.0546875, -12)"><text x="0" y="0" text-anchor="middle" dominant-baseline="middle" style="font-family: trebuchet ms, verdana, arial, sans-serif; font-size: 12px; fill: #333;">Yes</text></g></g><g class="edgeLabel"><g class="label" data-id="L_P_Q_0" transform="translate(0, 0)"></g></g><g class="edgeLabel"><g class="label" data-id="L_Q_R_0" transform="translate(0, 0)"></g></g><g class="edgeLabel"><g class="label" data-id="L_R_S_0" transform="translate(0, 0)"></g></g><g class="edgeLabel"><g class="label" data-id="L_S_T_0" transform="translate(0, 0)"></g></g></g><g class="nodes"><g class="node default" id="flowchart-A-0" transform="translate(126.59375, 198)"><rect class="basic label-container" style="fill:#90EE90 !important" x="-93.59375" y="-39" width="187.1875" height="78"/><g class="label" style="" transform="translate(-63.59375, -24)"><text text-anchor="middle" style="font-family: trebuchet ms, verdana, arial, sans-serif; font-size: 14px; fill: #333; font-weight: normal;"><tspan x="63.59375" y="18.400000000000002">SOAR Application</tspan><tspan x="63.59375" y="38.0">Write Operations</tspan></text></g></g><g class="node default" id="flowchart-B-1" transform="translate(349.5390625, 198)"><rect class="basic label-container" style="" x="-79.3515625" y="-39" width="158.703125" height="78"/><g class="label" style="" transform="translate(-49.3515625, -24)"><text text-anchor="middle" style="font-family: trebuchet ms, verdana, arial, sans-serif; font-size: 14px; fill: #333; font-weight: normal;"><tspan x="49.3515625" y="18.400000000000002">DC MongoDB</tspan><tspan x="49.3515625" y="38.0">Primary</tspan></text></g></g><g class="node default" id="flowchart-C-3" transform="translate(572.9375, 198)"><rect class="basic label-container" style="" x="-94.046875" y="-39" width="188.09375" height="78"/><g class="label" style="" transform="translate(-64.046875, -24)"><text text-anchor="middle" style="font-family: trebuchet ms, verdana, arial, sans-serif; font-size: 14px; fill: #333; font-weight: normal;"><tspan x="64.046875" y="18.400000000000002">Change Detection</tspan><tspan x="64.046875" y="38.0">Agent</tspan></text></g></g><g class="node default" id="flowchart-D-5" transform="translate(826.6953125, 198)"><polygon points="109.7109375,0 219.421875,-109.7109375 109.7109375,-219.421875 0,-109.7109375" class="label-container" transform="translate(-109.2109375, 109.7109375)"/><g class="label" style="" transform="translate(-70.7109375, -24)"><text text-anchor="middle" style="font-family: trebuchet ms, verdana, arial, sans-serif; font-size: 14px; fill: #333; font-weight: normal;"><tspan x="70.7109375" y="18.400000000000002">Data Modified</tspan><tspan x="70.7109375" y="38.0">Since Last Backup?</tspan></text></g></g><g class="node default" id="flowchart-E-7" transform="translate(1110.546875, 140)"><rect class="basic label-container" style="" x="-98.03125" y="-39" width="196.0625" height="78"/><g class="label" style="" transform="translate(-68.03125, -24)"><text text-anchor="middle" style="font-family: trebuchet ms, verdana, arial, sans-serif; font-size: 14px; fill: #333; font-weight: normal;"><tspan x="68.03125" y="18.400000000000002">Create Incremental</tspan><tspan x="68.03125" y="38.0">Dump</tspan></text></g></g><g class="node default" id="flowchart-F-9" transform="translate(1110.546875, 256)"><rect class="basic label-container" style="" x="-96.6953125" y="-27" width="193.390625" height="54"/><g class="label" style="" transform="translate(-66.6953125, -12)"><text x="66.6953125" y="17.0" text-anchor="middle" dominant-baseline="middle" style="font-family: trebuchet ms, verdana, arial, sans-serif; font-size: 14px; fill: #333;">Skip Backup Cycle</text></g></g><g class="node default" id="flowchart-G-11" transform="translate(1353.4921875, 140)"><rect class="basic label-container" style="" x="-94.9140625" y="-39" width="189.828125" height="78"/><g class="label" style="" transform="translate(-64.9140625, -24)"><text text-anchor="middle" style="font-family: trebuchet ms, verdana, arial, sans-serif; font-size: 14px; fill: #333; font-weight: normal;"><tspan x="64.9140625" y="18.400000000000002">Compress Archive</tspan><tspan x="64.9140625" y="38.0">tar.gz or similar</tspan></text></g></g><g class="node default" id="flowchart-H-13" transform="translate(1580.875, 140)"><rect class="basic label-container" style="" x="-82.46875" y="-39" width="164.9375" height="78"/><g class="label" style="" transform="translate(-52.46875, -24)"><text text-anchor="middle" style="font-family: trebuchet ms, verdana, arial, sans-serif; font-size: 14px; fill: #333; font-weight: normal;"><tspan x="52.46875" y="18.400000000000002">Calculate MD5</tspan><tspan x="52.46875" y="38.0">Checksum</tspan></text></g></g><g class="node default" id="flowchart-I-15" transform="translate(1841.21875, 140)"><rect class="basic label-container" style="fill:#FFE4B5 !important" x="-77.875" y="-39" width="155.75" height="78"/><g class="label" style="" transform="translate(-47.875, -24)"><text text-anchor="middle" style="font-family: trebuchet ms, verdana, arial, sans-serif; font-size: 14px; fill: #333; font-weight: normal;"><tspan x="47.875" y="18.400000000000002">SCP Transfer</tspan><tspan x="47.875" y="38.0">Port 22</tspan></text></g></g><g class="node default" id="flowchart-J-17" transform="translate(2055.5625, 195.89453125)"><rect class="basic label-container" style="" x="-86.46875" y="-27" width="172.9375" height="54"/><g class="label" style="" transform="translate(-56.46875, -12)"><text x="56.46875" y="17.0" text-anchor="middle" dominant-baseline="middle" style="font-family: trebuchet ms, verdana, arial, sans-serif; font-size: 14px; fill: #333;">SSH Encryption</text></g></g><g class="node default" id="flowchart-K-19" transform="translate(2282.9375, 195.89453125)"><rect class="basic label-container" style="" x="-90.90625" y="-27" width="181.8125" height="54"/><g class="label" style="" transform="translate(-60.90625, -12)"><text x="60.90625" y="17.0" text-anchor="middle" dominant-baseline="middle" style="font-family: trebuchet ms, verdana, arial, sans-serif; font-size: 14px; fill: #333;">Network Transfer</text></g></g><g class="node default" id="flowchart-L-21" transform="translate(2561.203125, 195.89453125)"><rect class="basic label-container" style="" x="-87.359375" y="-27" width="174.71875" height="54"/><g class="label" style="" transform="translate(-57.359375, -12)"><text x="57.359375" y="17.0" text-anchor="middle" dominant-baseline="middle" style="font-family: trebuchet ms, verdana, arial, sans-serif; font-size: 14px; fill: #333;">Receive Archive</text></g></g><g class="node default" id="flowchart-M-23" transform="translate(2767.6875, 195.89453125)"><rect class="basic label-container" style="" x="-69.125" y="-39" width="138.25" height="78"/><g class="label" style="" transform="translate(-39.125, -24)"><text text-anchor="middle" style="font-family: trebuchet ms, verdana, arial, sans-serif; font-size: 14px; fill: #333; font-weight: normal;"><tspan x="39.125" y="18.400000000000002">Verify MD5</tspan><tspan x="39.125" y="38.0">Checksum</tspan></text></g></g><g class="node default" id="flowchart-N-25" transform="translate(2963.6015625, 195.89453125)"><polygon points="76.7890625,0 153.578125,-76.7890625 76.7890625,-153.578125 0,-76.7890625" class="label-container" transform="translate(-76.2890625, 76.7890625)"/><g class="label" style="" transform="translate(-37.7890625, -24)"><text text-anchor="middle" style="font-family: trebuchet ms, verdana, arial, sans-serif; font-size: 14px; fill: #333; font-weight: normal;"><tspan x="37.7890625" y="18.400000000000002">Checksum</tspan><tspan x="37.7890625" y="38.0">Valid?</tspan></text></g></g><g class="node default" id="flowchart-O-27" transform="translate(3199.8515625, 82)"><rect class="basic label-container" style="" x="-75.34375" y="-39" width="150.6875" height="78"/><g class="label" style="" transform="translate(-45.34375, -24)"><text text-anchor="middle" style="font-family: trebuchet ms, verdana, arial, sans-serif; font-size: 14px; fill: #333; font-weight: normal;"><tspan x="45.34375" y="18.400000000000002">Alert & Retry</tspan><tspan x="45.34375" y="38.0">Transfer</tspan></text></g></g><g class="node default" id="flowchart-P-31" transform="translate(3199.8515625, 217.89453125)"><rect class="basic label-container" style="" x="-83.3515625" y="-27" width="166.703125" height="54"/><g class="label" style="" transform="translate(-53.3515625, -12)"><text x="53.3515625" y="17.0" text-anchor="middle" dominant-baseline="middle" style="font-family: trebuchet ms, verdana, arial, sans-serif; font-size: 14px; fill: #333;">Extract Archive</text></g></g><g class="node default" id="flowchart-Q-33" transform="translate(3426.359375, 217.89453125)"><rect class="basic label-container" style="" x="-93.15625" y="-39" width="186.3125" height="78"/><g class="label" style="" transform="translate(-63.15625, -24)"><text text-anchor="middle" style="font-family: trebuchet ms, verdana, arial, sans-serif; font-size: 14px; fill: #333; font-weight: normal;"><tspan x="63.15625" y="18.400000000000002">Apply Changes to</tspan><tspan x="63.15625" y="38.0">DR MongoDB</tspan></text></g></g><g class="node default" id="flowchart-R-35" transform="translate(3654.2109375, 217.89453125)"><rect class="basic label-container" style="" x="-84.6953125" y="-39" width="169.390625" height="78"/><g class="label" style="" transform="translate(-54.6953125, -24)"><text text-anchor="middle" style="font-family: trebuchet ms, verdana, arial, sans-serif; font-size: 14px; fill: #333; font-weight: normal;"><tspan x="54.6953125" y="18.400000000000002">Update System</tspan><tspan x="54.6953125" y="38.0">Metadata</tspan></text></g></g><g class="node default" id="flowchart-S-37" transform="translate(3859.375, 217.89453125)"><rect class="basic label-container" style="" x="-70.46875" y="-39" width="140.9375" height="78"/><g class="label" style="" transform="translate(-40.46875, -24)"><text text-anchor="middle" style="font-family: trebuchet ms, verdana, arial, sans-serif; font-size: 14px; fill: #333; font-weight: normal;"><tspan x="40.46875" y="18.400000000000002">Log Sync</tspan><tspan x="40.46875" y="38.0">Completion</tspan></text></g></g><g class="node default" id="flowchart-T-39" transform="translate(4072.9921875, 217.89453125)"><rect class="basic label-container" style="fill:#87CEEB !important" x="-93.1484375" y="-39" width="186.296875" height="78"/><g class="label" style="" transform="translate(-63.1484375, -24)"><text text-anchor="middle" style="font-family: trebuchet ms, verdana, arial, sans-serif; font-size: 14px; fill: #333; font-weight: normal;"><tspan x="63.1484375" y="18.400000000000002">DR Data Updated</tspan><tspan x="63.1484375" y="38.0">RPO: 1 hour</tspan></text></g></g></g></g></g></svg>