<svg id="my-svg" width="100%" xmlns="http://www.w3.org/2000/svg" xmlns:xlink="http://www.w3.org/1999/xlink" class="flowchart" style="max-width: 2276.84px; background-color: white;" viewBox="0 0 2276.84375 902" role="graphics-document document" aria-roledescription="flowchart-v2"><style>#my-svg{font-family:"trebuchet ms",verdana,arial,sans-serif;font-size:16px;fill:#333;}@keyframes edge-animation-frame{from{stroke-dashoffset:0;}}@keyframes dash{to{stroke-dashoffset:0;}}#my-svg .edge-animation-slow{stroke-dasharray:9,5!important;stroke-dashoffset:900;animation:dash 50s linear infinite;stroke-linecap:round;}#my-svg .edge-animation-fast{stroke-dasharray:9,5!important;stroke-dashoffset:900;animation:dash 20s linear infinite;stroke-linecap:round;}#my-svg .error-icon{fill:#552222;}#my-svg .error-text{fill:#552222;stroke:#552222;}#my-svg .edge-thickness-normal{stroke-width:1px;}#my-svg .edge-thickness-thick{stroke-width:3.5px;}#my-svg .edge-pattern-solid{stroke-dasharray:0;}#my-svg .edge-thickness-invisible{stroke-width:0;fill:none;}#my-svg .edge-pattern-dashed{stroke-dasharray:3;}#my-svg .edge-pattern-dotted{stroke-dasharray:2;}#my-svg .marker{fill:#333333;stroke:#333333;}#my-svg .marker.cross{stroke:#333333;}#my-svg svg{font-family:"trebuchet ms",verdana,arial,sans-serif;font-size:16px;}#my-svg p{margin:0;}#my-svg .label{font-family:"trebuchet ms",verdana,arial,sans-serif;color:#333;}#my-svg .cluster-label text{fill:#333;}#my-svg .cluster-label span{color:#333;}#my-svg .cluster-label span p{background-color:transparent;}#my-svg .label text,#my-svg span{fill:#333;color:#333;}#my-svg .node rect,#my-svg .node circle,#my-svg .node ellipse,#my-svg .node polygon,#my-svg .node path{fill:#ECECFF;stroke:#9370DB;stroke-width:1px;}#my-svg .rough-node .label text,#my-svg .node .label text,#my-svg .image-shape .label,#my-svg .icon-shape .label{text-anchor:middle;}#my-svg .node .katex path{fill:#000;stroke:#000;stroke-width:1px;}#my-svg .rough-node .label,#my-svg .node .label,#my-svg .image-shape .label,#my-svg .icon-shape .label{text-align:center;}#my-svg .node.clickable{cursor:pointer;}#my-svg .root .anchor path{fill:#333333!important;stroke-width:0;stroke:#333333;}#my-svg .arrowheadPath{fill:#333333;}#my-svg .edgePath .path{stroke:#333333;stroke-width:2.0px;}#my-svg .flowchart-link{stroke:#333333;fill:none;}#my-svg .edgeLabel{background-color:rgba(232,232,232, 0.8);text-align:center;}#my-svg .edgeLabel p{background-color:rgba(232,232,232, 0.8);}#my-svg .edgeLabel rect{opacity:0.5;background-color:rgba(232,232,232, 0.8);fill:rgba(232,232,232, 0.8);}#my-svg .labelBkg{background-color:rgba(232, 232, 232, 0.5);}#my-svg .cluster rect{fill:#ffffde;stroke:#aaaa33;stroke-width:1px;}#my-svg .cluster text{fill:#333;}#my-svg .cluster span{color:#333;}#my-svg div.mermaidTooltip{position:absolute;text-align:center;max-width:200px;padding:2px;font-family:"trebuchet ms",verdana,arial,sans-serif;font-size:12px;background:hsl(80, 100%, 96.2745098039%);border:1px solid #aaaa33;border-radius:2px;pointer-events:none;z-index:100;}#my-svg .flowchartTitleText{text-anchor:middle;font-size:18px;fill:#333;}#my-svg rect.text{fill:none;stroke-width:0;}#my-svg .icon-shape,#my-svg .image-shape{background-color:rgba(232,232,232, 0.8);text-align:center;}#my-svg .icon-shape p,#my-svg .image-shape p{background-color:rgba(232,232,232, 0.8);padding:2px;}#my-svg .icon-shape rect,#my-svg .image-shape rect{opacity:0.5;background-color:rgba(232,232,232, 0.8);fill:rgba(232,232,232, 0.8);}#my-svg .label-icon{display:inline-block;height:1em;overflow:visible;vertical-align:-0.125em;}#my-svg .node .label-icon path{fill:currentColor;stroke:revert;stroke-width:revert;}#my-svg :root{--mermaid-font-family:"trebuchet ms",verdana,arial,sans-serif;}#my-svg .loadBalancer&gt;*{fill:#ff9999!important;}#my-svg .loadBalancer span{fill:#ff9999!important;}#my-svg .application&gt;*{fill:#99ccff!important;}#my-svg .application span{fill:#99ccff!important;}#my-svg .integration&gt;*{fill:#99ff99!important;}#my-svg .integration span{fill:#99ff99!important;}#my-svg .messageQueue&gt;*{fill:#ffcc99!important;}#my-svg .messageQueue span{fill:#ffcc99!important;}#my-svg .cache&gt;*{fill:#cc99ff!important;}#my-svg .cache span{fill:#cc99ff!important;}#my-svg .database&gt;*{fill:#ffff99!important;}#my-svg .database span{fill:#ffff99!important;}</style><g><marker id="my-svg_flowchart-v2-pointEnd" class="marker flowchart-v2" viewBox="0 0 10 10" refX="5" refY="5" markerUnits="userSpaceOnUse" markerWidth="8" markerHeight="8" orient="auto"><path d="M 0 0 L 10 5 L 0 10 z" class="arrowMarkerPath" style="stroke-width: 1; stroke-dasharray: 1, 0;"/></marker><marker id="my-svg_flowchart-v2-pointStart" class="marker flowchart-v2" viewBox="0 0 10 10" refX="4.5" refY="5" markerUnits="userSpaceOnUse" markerWidth="8" markerHeight="8" orient="auto"><path d="M 0 5 L 10 10 L 10 0 z" class="arrowMarkerPath" style="stroke-width: 1; stroke-dasharray: 1, 0;"/></marker><marker id="my-svg_flowchart-v2-circleEnd" class="marker flowchart-v2" viewBox="0 0 10 10" refX="11" refY="5" markerUnits="userSpaceOnUse" markerWidth="11" markerHeight="11" orient="auto"><circle cx="5" cy="5" r="5" class="arrowMarkerPath" style="stroke-width: 1; stroke-dasharray: 1, 0;"/></marker><marker id="my-svg_flowchart-v2-circleStart" class="marker flowchart-v2" viewBox="0 0 10 10" refX="-1" refY="5" markerUnits="userSpaceOnUse" markerWidth="11" markerHeight="11" orient="auto"><circle cx="5" cy="5" r="5" class="arrowMarkerPath" style="stroke-width: 1; stroke-dasharray: 1, 0;"/></marker><marker id="my-svg_flowchart-v2-crossEnd" class="marker cross flowchart-v2" viewBox="0 0 11 11" refX="12" refY="5.2" markerUnits="userSpaceOnUse" markerWidth="11" markerHeight="11" orient="auto"><path d="M 1,1 l 9,9 M 10,1 l -9,9" class="arrowMarkerPath" style="stroke-width: 2; stroke-dasharray: 1, 0;"/></marker><marker id="my-svg_flowchart-v2-crossStart" class="marker cross flowchart-v2" viewBox="0 0 11 11" refX="-1" refY="5.2" markerUnits="userSpaceOnUse" markerWidth="11" markerHeight="11" orient="auto"><path d="M 1,1 l 9,9 M 10,1 l -9,9" class="arrowMarkerPath" style="stroke-width: 2; stroke-dasharray: 1, 0;"/></marker><g class="root"><g class="clusters"><g class="cluster" id="subGraph5" data-look="classic"><rect style="" x="8" y="564" width="745.796875" height="152"/><g class="cluster-label" transform="translate(293.296875, 564)"><text x="87.6015625" y="17.0" text-anchor="middle" dominant-baseline="middle" style="font-family: trebuchet ms, verdana, arial, sans-serif; font-size: 14px; fill: #333;">Database Tier (Sharded)</text></g></g><g class="cluster" id="subGraph4" data-look="classic"><rect style="" x="773.796875" y="564" width="669.6875" height="152"/><g class="cluster-label" transform="translate(1008.640625, 564)"><text x="100.0" y="29.0" text-anchor="middle" dominant-baseline="middle" style="font-family: trebuchet ms, verdana, arial, sans-serif; font-size: 14px; fill: #333;">Caching Layer (Redis Cluster)</text></g></g><g class="cluster" id="subGraph3" data-look="classic"><rect style="" x="1474.1484375" y="766" width="770.234375" height="128"/><g class="cluster-label" transform="translate(1759.265625, 766)"><text x="100.0" y="29.0" text-anchor="middle" dominant-baseline="middle" style="font-family: trebuchet ms, verdana, arial, sans-serif; font-size: 14px; fill: #333;">Message Queue (Kafka Cluster)</text></g></g><g class="cluster" id="subGraph2" data-look="classic"><rect style="" x="1463.484375" y="564" width="805.359375" height="152"/><g class="cluster-label" transform="translate(1767.0078125, 564)"><text x="99.15625" y="17.0" text-anchor="middle" dominant-baseline="middle" style="font-family: trebuchet ms, verdana, arial, sans-serif; font-size: 14px; fill: #333;">Integration Tier (Distributed)</text></g></g><g class="cluster" id="subGraph1" data-look="classic"><rect style="" x="79.01953125" y="362" width="2081.9140625" height="152"/><g class="cluster-label" transform="translate(1019.9765625, 362)"><text x="100.0" y="29.0" text-anchor="middle" dominant-baseline="middle" style="font-family: trebuchet ms, verdana, arial, sans-serif; font-size: 14px; fill: #333;">Application Tier (Auto-Scaling)</text></g></g><g class="cluster" id="subGraph0" data-look="classic"><rect style="" x="831.90234375" y="8" width="528.578125" height="304"/><g class="cluster-label" transform="translate(1025.47265625, 8)"><text x="70.71875" y="17.0" text-anchor="middle" dominant-baseline="middle" style="font-family: trebuchet ms, verdana, arial, sans-serif; font-size: 14px; fill: #333;">Load Balancing Tier</text></g></g></g><g class="edgePaths"><path d="M1105.527,135L1105.527,139.167C1105.527,143.333,1105.527,151.667,1105.527,159.333C1105.527,167,1105.527,174,1105.527,177.5L1105.527,181" id="L_CDN_LB_0" class="edge-thickness-normal edge-pattern-solid edge-thickness-normal edge-pattern-solid flowchart-link" style=";" data-edge="true" data-et="edge" data-id="L_CDN_LB_0" data-points="W3sieCI6MTEwNS41MjczNDM3NSwieSI6MTM1fSx7IngiOjExMDUuNTI3MzQzNzUsInkiOjE2MH0seyJ4IjoxMTA1LjUyNzM0Mzc1LCJ5IjoxODV9XQ==" marker-end="url(#my-svg_flowchart-v2-pointEnd)"/><path d="M1017.27,264.711L993.042,272.592C968.814,280.474,920.358,296.237,896.13,308.285C871.902,320.333,871.902,328.667,871.902,337C871.902,345.333,871.902,353.667,871.902,361.333C871.902,369,871.902,376,871.902,379.5L871.902,383" id="L_LB_APP1_0" class="edge-thickness-normal edge-pattern-solid edge-thickness-normal edge-pattern-solid flowchart-link" style=";" data-edge="true" data-et="edge" data-id="L_LB_APP1_0" data-points="W3sieCI6MTAxNy4yNjk1MzEyNSwieSI6MjY0LjcxMDk0MTY4MDA0Mjh9LHsieCI6ODcxLjkwMjM0Mzc1LCJ5IjozMTJ9LHsieCI6ODcxLjkwMjM0Mzc1LCJ5IjozMzd9LHsieCI6ODcxLjkwMjM0Mzc1LCJ5IjozNjJ9LHsieCI6ODcxLjkwMjM0Mzc1LCJ5IjozODd9XQ==" marker-end="url(#my-svg_flowchart-v2-pointEnd)"/><path d="M1105.527,287L1105.527,291.167C1105.527,295.333,1105.527,303.667,1105.527,312C1105.527,320.333,1105.527,328.667,1105.527,337C1105.527,345.333,1105.527,353.667,1105.527,361.333C1105.527,369,1105.527,376,1105.527,379.5L1105.527,383" id="L_LB_APP2_0" class="edge-thickness-normal edge-pattern-solid edge-thickness-normal edge-pattern-solid flowchart-link" style=";" data-edge="true" data-et="edge" data-id="L_LB_APP2_0" data-points="W3sieCI6MTEwNS41MjczNDM3NSwieSI6Mjg3fSx7IngiOjExMDUuNTI3MzQzNzUsInkiOjMxMn0seyJ4IjoxMTA1LjUyNzM0Mzc1LCJ5IjozMzd9LHsieCI6MTEwNS41MjczNDM3NSwieSI6MzYyfSx7IngiOjExMDUuNTI3MzQzNzUsInkiOjM4N31d" marker-end="url(#my-svg_flowchart-v2-pointEnd)"/><path d="M1193.785,264.549L1218.234,272.457C1242.684,280.366,1291.582,296.183,1316.031,308.258C1340.48,320.333,1340.48,328.667,1340.48,337C1340.48,345.333,1340.48,353.667,1340.48,361.333C1340.48,369,1340.48,376,1340.48,379.5L1340.48,383" id="L_LB_APP3_0" class="edge-thickness-normal edge-pattern-solid edge-thickness-normal edge-pattern-solid flowchart-link" style=";" data-edge="true" data-et="edge" data-id="L_LB_APP3_0" data-points="W3sieCI6MTE5My43ODUxNTYyNSwieSI6MjY0LjU0ODY0NjY3MTU0MzV9LHsieCI6MTM0MC40ODA0Njg3NSwieSI6MzEyfSx7IngiOjEzNDAuNDgwNDY4NzUsInkiOjMzN30seyJ4IjoxMzQwLjQ4MDQ2ODc1LCJ5IjozNjJ9LHsieCI6MTM0MC40ODA0Njg3NSwieSI6Mzg3fV0=" marker-end="url(#my-svg_flowchart-v2-pointEnd)"/><path d="M963.715,447.641L1069.035,458.701C1174.354,469.761,1384.993,491.88,1490.313,507.107C1595.633,522.333,1595.633,530.667,1595.633,539C1595.633,547.333,1595.633,555.667,1595.633,563.333C1595.633,571,1595.633,578,1595.633,581.5L1595.633,585" id="L_APP1_INT1_0" class="edge-thickness-normal edge-pattern-solid edge-thickness-normal edge-pattern-solid flowchart-link" style=";" data-edge="true" data-et="edge" data-id="L_APP1_INT1_0" data-points="W3sieCI6OTYzLjcxNDg0Mzc1LCJ5Ijo0NDcuNjQxMzY1NTM3NzE0Mn0seyJ4IjoxNTk1LjYzMjgxMjUsInkiOjUxNH0seyJ4IjoxNTk1LjYzMjgxMjUsInkiOjUzOX0seyJ4IjoxNTk1LjYzMjgxMjUsInkiOjU2NH0seyJ4IjoxNTk1LjYzMjgxMjUsInkiOjU4OX1d" marker-end="url(#my-svg_flowchart-v2-pointEnd)"/><path d="M1197.34,447.365L1306.217,458.471C1415.094,469.577,1632.848,491.788,1741.725,507.061C1850.602,522.333,1850.602,530.667,1850.602,539C1850.602,547.333,1850.602,555.667,1850.602,563.333C1850.602,571,1850.602,578,1850.602,581.5L1850.602,585" id="L_APP2_INT2_0" class="edge-thickness-normal edge-pattern-solid edge-thickness-normal edge-pattern-solid flowchart-link" style=";" data-edge="true" data-et="edge" data-id="L_APP2_INT2_0" data-points="W3sieCI6MTE5Ny4zMzk4NDM3NSwieSI6NDQ3LjM2NTE3NDQwMDYyMDczfSx7IngiOjE4NTAuNjAxNTYyNSwieSI6NTE0fSx7IngiOjE4NTAuNjAxNTYyNSwieSI6NTM5fSx7IngiOjE4NTAuNjAxNTYyNSwieSI6NTY0fSx7IngiOjE4NTAuNjAxNTYyNSwieSI6NTg5fV0=" marker-end="url(#my-svg_flowchart-v2-pointEnd)"/><path d="M1433.621,447.068L1548.206,458.223C1662.792,469.378,1891.962,491.689,2006.548,507.011C2121.133,522.333,2121.133,530.667,2121.133,539C2121.133,547.333,2121.133,555.667,2121.133,563.333C2121.133,571,2121.133,578,2121.133,581.5L2121.133,585" id="L_APP3_INT3_0" class="edge-thickness-normal edge-pattern-solid edge-thickness-normal edge-pattern-solid flowchart-link" style=";" data-edge="true" data-et="edge" data-id="L_APP3_INT3_0" data-points="W3sieCI6MTQzMy42MjEwOTM3NSwieSI6NDQ3LjA2NzY1Njc1NzQxOTR9LHsieCI6MjEyMS4xMzI4MTI1LCJ5Ijo1MTR9LHsieCI6MjEyMS4xMzI4MTI1LCJ5Ijo1Mzl9LHsieCI6MjEyMS4xMzI4MTI1LCJ5Ijo1NjR9LHsieCI6MjEyMS4xMzI4MTI1LCJ5Ijo1ODl9XQ==" marker-end="url(#my-svg_flowchart-v2-pointEnd)"/><path d="M1595.633,691L1595.633,695.167C1595.633,699.333,1595.633,707.667,1595.633,716C1595.633,724.333,1595.633,732.667,1595.633,741C1595.633,749.333,1595.633,757.667,1595.633,765.333C1595.633,773,1595.633,780,1595.633,783.5L1595.633,787" id="L_INT1_KAFKA1_0" class="edge-thickness-normal edge-pattern-solid edge-thickness-normal edge-pattern-solid flowchart-link" style=";" data-edge="true" data-et="edge" data-id="L_INT1_KAFKA1_0" data-points="W3sieCI6MTU5NS42MzI4MTI1LCJ5Ijo2OTF9LHsieCI6MTU5NS42MzI4MTI1LCJ5Ijo3MTZ9LHsieCI6MTU5NS42MzI4MTI1LCJ5Ijo3NDF9LHsieCI6MTU5NS42MzI4MTI1LCJ5Ijo3NjZ9LHsieCI6MTU5NS42MzI4MTI1LCJ5Ijo3OTF9XQ==" marker-end="url(#my-svg_flowchart-v2-pointEnd)"/><path d="M1850.602,691L1850.602,695.167C1850.602,699.333,1850.602,707.667,1850.602,716C1850.602,724.333,1850.602,732.667,1850.602,741C1850.602,749.333,1850.602,757.667,1850.602,765.333C1850.602,773,1850.602,780,1850.602,783.5L1850.602,787" id="L_INT2_KAFKA2_0" class="edge-thickness-normal edge-pattern-solid edge-thickness-normal edge-pattern-solid flowchart-link" style=";" data-edge="true" data-et="edge" data-id="L_INT2_KAFKA2_0" data-points="W3sieCI6MTg1MC42MDE1NjI1LCJ5Ijo2OTF9LHsieCI6MTg1MC42MDE1NjI1LCJ5Ijo3MTZ9LHsieCI6MTg1MC42MDE1NjI1LCJ5Ijo3NDF9LHsieCI6MTg1MC42MDE1NjI1LCJ5Ijo3NjZ9LHsieCI6MTg1MC42MDE1NjI1LCJ5Ijo3OTF9XQ==" marker-end="url(#my-svg_flowchart-v2-pointEnd)"/><path d="M2121.133,691L2121.133,695.167C2121.133,699.333,2121.133,707.667,2121.133,716C2121.133,724.333,2121.133,732.667,2121.133,741C2121.133,749.333,2121.133,757.667,2121.133,765.333C2121.133,773,2121.133,780,2121.133,783.5L2121.133,787" id="L_INT3_KAFKA3_0" class="edge-thickness-normal edge-pattern-solid edge-thickness-normal edge-pattern-solid flowchart-link" style=";" data-edge="true" data-et="edge" data-id="L_INT3_KAFKA3_0" data-points="W3sieCI6MjEyMS4xMzI4MTI1LCJ5Ijo2OTF9LHsieCI6MjEyMS4xMzI4MTI1LCJ5Ijo3MTZ9LHsieCI6MjEyMS4xMzI4MTI1LCJ5Ijo3NDF9LHsieCI6MjEyMS4xMzI4MTI1LCJ5Ijo3NjZ9LHsieCI6MjEyMS4xMzI4MTI1LCJ5Ijo3OTF9XQ==" marker-end="url(#my-svg_flowchart-v2-pointEnd)"/><path d="M885.19,489L886.275,493.167C887.361,497.333,889.532,505.667,890.618,514C891.703,522.333,891.703,530.667,891.703,539C891.703,547.333,891.703,555.667,891.703,565.333C891.703,575,891.703,586,891.703,591.5L891.703,597" id="L_APP1_REDIS1_0" class="edge-thickness-normal edge-pattern-solid edge-thickness-normal edge-pattern-solid flowchart-link" style=";" data-edge="true" data-et="edge" data-id="L_APP1_REDIS1_0" data-points="W3sieCI6ODg1LjE4OTcxMDExNTEzMTYsInkiOjQ4OX0seyJ4Ijo4OTEuNzAzMTI1LCJ5Ijo1MTR9LHsieCI6ODkxLjcwMzEyNSwieSI6NTM5fSx7IngiOjg5MS43MDMxMjUsInkiOjU2NH0seyJ4Ijo4OTEuNzAzMTI1LCJ5Ijo2MDF9XQ==" marker-end="url(#my-svg_flowchart-v2-pointEnd)"/><path d="M1111.648,489L1112.148,493.167C1112.648,497.333,1113.648,505.667,1114.148,514C1114.648,522.333,1114.648,530.667,1114.648,539C1114.648,547.333,1114.648,555.667,1114.648,565.333C1114.648,575,1114.648,586,1114.648,591.5L1114.648,597" id="L_APP2_REDIS2_0" class="edge-thickness-normal edge-pattern-solid edge-thickness-normal edge-pattern-solid flowchart-link" style=";" data-edge="true" data-et="edge" data-id="L_APP2_REDIS2_0" data-points="W3sieCI6MTExMS42NDgwNzc3MTM4MTU4LCJ5Ijo0ODl9LHsieCI6MTExNC42NDg0Mzc1LCJ5Ijo1MTR9LHsieCI6MTExNC42NDg0Mzc1LCJ5Ijo1Mzl9LHsieCI6MTExNC42NDg0Mzc1LCJ5Ijo1NjR9LHsieCI6MTExNC42NDg0Mzc1LCJ5Ijo2MDF9XQ==" marker-end="url(#my-svg_flowchart-v2-pointEnd)"/><path d="M1332.86,489L1332.238,493.167C1331.615,497.333,1330.37,505.667,1329.748,514C1329.125,522.333,1329.125,530.667,1329.125,539C1329.125,547.333,1329.125,555.667,1329.125,565.333C1329.125,575,1329.125,586,1329.125,591.5L1329.125,597" id="L_APP3_REDIS3_0" class="edge-thickness-normal edge-pattern-solid edge-thickness-normal edge-pattern-solid flowchart-link" style=";" data-edge="true" data-et="edge" data-id="L_APP3_REDIS3_0" data-points="W3sieCI6MTMzMi44NjAzNTE1NjI1LCJ5Ijo0ODl9LHsieCI6MTMyOS4xMjUsInkiOjUxNH0seyJ4IjoxMzI5LjEyNSwieSI6NTM5fSx7IngiOjEzMjkuMTI1LCJ5Ijo1NjR9LHsieCI6MTMyOS4xMjUsInkiOjYwMX1d" marker-end="url(#my-svg_flowchart-v2-pointEnd)"/><path d="M780.09,447.518L673.212,458.599C566.333,469.679,352.577,491.839,245.699,507.086C138.82,522.333,138.82,530.667,138.82,539C138.82,547.333,138.82,555.667,138.82,565.333C138.82,575,138.82,586,138.82,591.5L138.82,597" id="L_APP1_MONGO1_0" class="edge-thickness-normal edge-pattern-solid edge-thickness-normal edge-pattern-solid flowchart-link" style=";" data-edge="true" data-et="edge" data-id="L_APP1_MONGO1_0" data-points="W3sieCI6NzgwLjA4OTg0Mzc1LCJ5Ijo0NDcuNTE4Mzc1NDM3NjA1Nn0seyJ4IjoxMzguODIwMzEyNSwieSI6NTE0fSx7IngiOjEzOC44MjAzMTI1LCJ5Ijo1Mzl9LHsieCI6MTM4LjgyMDMxMjUsInkiOjU2NH0seyJ4IjoxMzguODIwMzEyNSwieSI6NjAxfV0=" marker-end="url(#my-svg_flowchart-v2-pointEnd)"/><path d="M1013.715,447.629L908.245,458.691C802.776,469.753,591.837,491.876,486.368,507.105C380.898,522.333,380.898,530.667,380.898,539C380.898,547.333,380.898,555.667,380.898,565.333C380.898,575,380.898,586,380.898,591.5L380.898,597" id="L_APP2_MONGO2_0" class="edge-thickness-normal edge-pattern-solid edge-thickness-normal edge-pattern-solid flowchart-link" style=";" data-edge="true" data-et="edge" data-id="L_APP2_MONGO2_0" data-points="W3sieCI6MTAxMy43MTQ4NDM3NSwieSI6NDQ3LjYyOTQxMTYwNjE1NjE3fSx7IngiOjM4MC44OTg0Mzc1LCJ5Ijo1MTR9LHsieCI6MzgwLjg5ODQzNzUsInkiOjUzOX0seyJ4IjozODAuODk4NDM3NSwieSI6NTY0fSx7IngiOjM4MC44OTg0Mzc1LCJ5Ijo2MDF9XQ==" marker-end="url(#my-svg_flowchart-v2-pointEnd)"/><path d="M1247.34,447.866L1143.279,458.888C1039.219,469.91,831.098,491.955,727.037,507.144C622.977,522.333,622.977,530.667,622.977,539C622.977,547.333,622.977,555.667,622.977,565.333C622.977,575,622.977,586,622.977,591.5L622.977,597" id="L_APP3_MONGO3_0" class="edge-thickness-normal edge-pattern-solid edge-thickness-normal edge-pattern-solid flowchart-link" style=";" data-edge="true" data-et="edge" data-id="L_APP3_MONGO3_0" data-points="W3sieCI6MTI0Ny4zMzk4NDM3NSwieSI6NDQ3Ljg2NTcxMjgzOTEwNjk1fSx7IngiOjYyMi45NzY1NjI1LCJ5Ijo1MTR9LHsieCI6NjIyLjk3NjU2MjUsInkiOjUzOX0seyJ4Ijo2MjIuOTc2NTYyNSwieSI6NTY0fSx7IngiOjYyMi45NzY1NjI1LCJ5Ijo2MDF9XQ==" marker-end="url(#my-svg_flowchart-v2-pointEnd)"/></g><g class="edgeLabels"><g class="edgeLabel"><g class="label" data-id="L_CDN_LB_0" transform="translate(0, 0)"></g></g><g class="edgeLabel"><g class="label" data-id="L_LB_APP1_0" transform="translate(0, 0)"></g></g><g class="edgeLabel"><g class="label" data-id="L_LB_APP2_0" transform="translate(0, 0)"></g></g><g class="edgeLabel"><g class="label" data-id="L_LB_APP3_0" transform="translate(0, 0)"></g></g><g class="edgeLabel"><g class="label" data-id="L_APP1_INT1_0" transform="translate(0, 0)"></g></g><g class="edgeLabel"><g class="label" data-id="L_APP2_INT2_0" transform="translate(0, 0)"></g></g><g class="edgeLabel"><g class="label" data-id="L_APP3_INT3_0" transform="translate(0, 0)"></g></g><g class="edgeLabel"><g class="label" data-id="L_INT1_KAFKA1_0" transform="translate(0, 0)"></g></g><g class="edgeLabel"><g class="label" data-id="L_INT2_KAFKA2_0" transform="translate(0, 0)"></g></g><g class="edgeLabel"><g class="label" data-id="L_INT3_KAFKA3_0" transform="translate(0, 0)"></g></g><g class="edgeLabel"><g class="label" data-id="L_APP1_REDIS1_0" transform="translate(0, 0)"></g></g><g class="edgeLabel"><g class="label" data-id="L_APP2_REDIS2_0" transform="translate(0, 0)"></g></g><g class="edgeLabel"><g class="label" data-id="L_APP3_REDIS3_0" transform="translate(0, 0)"></g></g><g class="edgeLabel"><g class="label" data-id="L_APP1_MONGO1_0" transform="translate(0, 0)"></g></g><g class="edgeLabel"><g class="label" data-id="L_APP2_MONGO2_0" transform="translate(0, 0)"></g></g><g class="edgeLabel"><g class="label" data-id="L_APP3_MONGO3_0" transform="translate(0, 0)"></g></g></g><g class="nodes"><g class="node default loadBalancer" id="flowchart-LB-0" transform="translate(1105.52734375, 236)"><rect class="basic label-container" style="fill:#ff9999 !important" x="-88.2578125" y="-51" width="176.515625" height="102"/><g class="label" style="" transform="translate(-58.2578125, -36)"><text text-anchor="middle" style="font-family: trebuchet ms, verdana, arial, sans-serif; font-size: 14px; fill: #333; font-weight: normal;"><tspan x="58.2578125" y="20.6">Load Balancer</tspan><tspan x="58.2578125" y="40.2">HAProxy/Nginx</tspan><tspan x="58.2578125" y="59.8">SSL Termination</tspan></text></g></g><g class="node default loadBalancer" id="flowchart-CDN-1" transform="translate(1105.52734375, 84)"><rect class="basic label-container" style="fill:#ff9999 !important" x="-120.703125" y="-51" width="241.40625" height="102"/><g class="label" style="" transform="translate(-90.703125, -36)"><text text-anchor="middle" style="font-family: trebuchet ms, verdana, arial, sans-serif; font-size: 14px; fill: #333; font-weight: normal;"><tspan x="90.703125" y="20.6">Content Delivery Network</tspan><tspan x="90.703125" y="40.2">Static Asset Caching</tspan><tspan x="90.703125" y="59.8">Global Distribution</tspan></text></g></g><g class="node default application" id="flowchart-APP1-2" transform="translate(871.90234375, 438)"><rect class="basic label-container" style="fill:#99ccff !important" x="-91.8125" y="-51" width="183.625" height="102"/><g class="label" style="" transform="translate(-61.8125, -36)"><text text-anchor="middle" style="font-family: trebuchet ms, verdana, arial, sans-serif; font-size: 14px; fill: #333; font-weight: normal;"><tspan x="61.8125" y="20.6">SOAR Instance 1</tspan><tspan x="61.8125" y="40.2">API Server</tspan><tspan x="61.8125" y="59.8">Playbook Engine</tspan></text></g></g><g class="node default application" id="flowchart-APP2-3" transform="translate(1105.52734375, 438)"><rect class="basic label-container" style="fill:#99ccff !important" x="-91.8125" y="-51" width="183.625" height="102"/><g class="label" style="" transform="translate(-61.8125, -36)"><text text-anchor="middle" style="font-family: trebuchet ms, verdana, arial, sans-serif; font-size: 14px; fill: #333; font-weight: normal;"><tspan x="61.8125" y="20.6">SOAR Instance 2</tspan><tspan x="61.8125" y="40.2">API Server</tspan><tspan x="61.8125" y="59.8">Playbook Engine</tspan></text></g></g><g class="node default application" id="flowchart-APP3-4" transform="translate(1340.48046875, 438)"><rect class="basic label-container" style="fill:#99ccff !important" x="-93.140625" y="-51" width="186.28125" height="102"/><g class="label" style="" transform="translate(-63.140625, -36)"><text text-anchor="middle" style="font-family: trebuchet ms, verdana, arial, sans-serif; font-size: 14px; fill: #333; font-weight: normal;"><tspan x="63.140625" y="20.6">SOAR Instance N</tspan><tspan x="63.140625" y="40.2">API Server</tspan><tspan x="63.140625" y="59.8">Playbook Engine</tspan></text></g></g><g class="node default integration" id="flowchart-INT1-5" transform="translate(1595.6328125, 640)"><rect class="basic label-container" style="fill:#99ff99 !important" x="-97.1484375" y="-51" width="194.296875" height="102"/><g class="label" style="" transform="translate(-67.1484375, -36)"><text text-anchor="middle" style="font-family: trebuchet ms, verdana, arial, sans-serif; font-size: 14px; fill: #333; font-weight: normal;"><tspan x="67.1484375" y="20.6">Integration Node 1</tspan><tspan x="67.1484375" y="40.2">Graylog Connector</tspan><tspan x="67.1484375" y="59.8">Data Processing</tspan></text></g></g><g class="node default integration" id="flowchart-INT2-6" transform="translate(1850.6015625, 640)"><rect class="basic label-container" style="fill:#99ff99 !important" x="-107.8203125" y="-51" width="215.640625" height="102"/><g class="label" style="" transform="translate(-77.8203125, -36)"><text text-anchor="middle" style="font-family: trebuchet ms, verdana, arial, sans-serif; font-size: 14px; fill: #333; font-weight: normal;"><tspan x="77.8203125" y="20.6">Integration Node 2</tspan><tspan x="77.8203125" y="40.2">ThreatMon Connector</tspan><tspan x="77.8203125" y="59.8">TI Processing</tspan></text></g></g><g class="node default integration" id="flowchart-INT3-7" transform="translate(2121.1328125, 640)"><rect class="basic label-container" style="fill:#99ff99 !important" x="-112.7109375" y="-51" width="225.421875" height="102"/><g class="label" style="" transform="translate(-82.7109375, -36)"><text text-anchor="middle" style="font-family: trebuchet ms, verdana, arial, sans-serif; font-size: 14px; fill: #333; font-weight: normal;"><tspan x="82.7109375" y="20.6">Integration Node N</tspan><tspan x="82.7109375" y="40.2">Other Connectors</tspan><tspan x="82.7109375" y="59.8">Specialized Processing</tspan></text></g></g><g class="node default messageQueue" id="flowchart-KAFKA1-8" transform="translate(1595.6328125, 830)"><rect class="basic label-container" style="fill:#ffcc99 !important" x="-86.484375" y="-39" width="172.96875" height="78"/><g class="label" style="" transform="translate(-56.484375, -24)"><text text-anchor="middle" style="font-family: trebuchet ms, verdana, arial, sans-serif; font-size: 14px; fill: #333; font-weight: normal;"><tspan x="56.484375" y="18.400000000000002">Kafka Broker 1</tspan><tspan x="56.484375" y="38.0">Partition Leader</tspan></text></g></g><g class="node default messageQueue" id="flowchart-KAFKA2-9" transform="translate(1850.6015625, 830)"><rect class="basic label-container" style="fill:#ffcc99 !important" x="-88.25" y="-39" width="176.5" height="78"/><g class="label" style="" transform="translate(-58.25, -24)"><text text-anchor="middle" style="font-family: trebuchet ms, verdana, arial, sans-serif; font-size: 14px; fill: #333; font-weight: normal;"><tspan x="58.25" y="18.400000000000002">Kafka Broker 2</tspan><tspan x="58.25" y="38.0">Partition Replica</tspan></text></g></g><g class="node default messageQueue" id="flowchart-KAFKA3-10" transform="translate(2121.1328125, 830)"><rect class="basic label-container" style="fill:#ffcc99 !important" x="-88.25" y="-39" width="176.5" height="78"/><g class="label" style="" transform="translate(-58.25, -24)"><text text-anchor="middle" style="font-family: trebuchet ms, verdana, arial, sans-serif; font-size: 14px; fill: #333; font-weight: normal;"><tspan x="58.25" y="18.400000000000002">Kafka Broker 3</tspan><tspan x="58.25" y="38.0">Partition Replica</tspan></text></g></g><g class="node default cache" id="flowchart-REDIS1-11" transform="translate(891.703125, 640)"><rect class="basic label-container" style="fill:#cc99ff !important" x="-82.90625" y="-39" width="165.8125" height="78"/><g class="label" style="" transform="translate(-52.90625, -24)"><text text-anchor="middle" style="font-family: trebuchet ms, verdana, arial, sans-serif; font-size: 14px; fill: #333; font-weight: normal;"><tspan x="52.90625" y="18.400000000000002">Redis Master</tspan><tspan x="52.90625" y="38.0">Primary Cache</tspan></text></g></g><g class="node default cache" id="flowchart-REDIS2-12" transform="translate(1114.6484375, 640)"><rect class="basic label-container" style="fill:#cc99ff !important" x="-79.359375" y="-39" width="158.71875" height="78"/><g class="label" style="" transform="translate(-49.359375, -24)"><text text-anchor="middle" style="font-family: trebuchet ms, verdana, arial, sans-serif; font-size: 14px; fill: #333; font-weight: normal;"><tspan x="49.359375" y="18.400000000000002">Redis Slave 1</tspan><tspan x="49.359375" y="38.0">Read Replica</tspan></text></g></g><g class="node default cache" id="flowchart-REDIS3-13" transform="translate(1329.125, 640)"><rect class="basic label-container" style="fill:#cc99ff !important" x="-79.359375" y="-39" width="158.71875" height="78"/><g class="label" style="" transform="translate(-49.359375, -24)"><text text-anchor="middle" style="font-family: trebuchet ms, verdana, arial, sans-serif; font-size: 14px; fill: #333; font-weight: normal;"><tspan x="49.359375" y="18.400000000000002">Redis Slave 2</tspan><tspan x="49.359375" y="38.0">Read Replica</tspan></text></g></g><g class="node default database" id="flowchart-MONGO1-14" transform="translate(138.8203125, 640)"><rect class="basic label-container" style="fill:#ffff99 !important" x="-95.8203125" y="-39" width="191.640625" height="78"/><g class="label" style="" transform="translate(-65.8203125, -24)"><text text-anchor="middle" style="font-family: trebuchet ms, verdana, arial, sans-serif; font-size: 14px; fill: #333; font-weight: normal;"><tspan x="65.8203125" y="18.400000000000002">MongoDB Shard 1</tspan><tspan x="65.8203125" y="38.0">Tenant Range A-G</tspan></text></g></g><g class="node default database" id="flowchart-MONGO2-15" transform="translate(380.8984375, 640)"><rect class="basic label-container" style="fill:#ffff99 !important" x="-96.2578125" y="-39" width="192.515625" height="78"/><g class="label" style="" transform="translate(-66.2578125, -24)"><text text-anchor="middle" style="font-family: trebuchet ms, verdana, arial, sans-serif; font-size: 14px; fill: #333; font-weight: normal;"><tspan x="66.2578125" y="18.400000000000002">MongoDB Shard 2</tspan><tspan x="66.2578125" y="38.0">Tenant Range H-N</tspan></text></g></g><g class="node default database" id="flowchart-MONGO3-16" transform="translate(622.9765625, 640)"><rect class="basic label-container" style="fill:#ffff99 !important" x="-95.8203125" y="-39" width="191.640625" height="78"/><g class="label" style="" transform="translate(-65.8203125, -24)"><text text-anchor="middle" style="font-family: trebuchet ms, verdana, arial, sans-serif; font-size: 14px; fill: #333; font-weight: normal;"><tspan x="65.8203125" y="18.400000000000002">MongoDB Shard 3</tspan><tspan x="65.8203125" y="38.0">Tenant Range O-Z</tspan></text></g></g></g></g></g></svg>